# xmcd
#
# Track frame offsets:
#	150
#	14909
#	30413
#	54417
#	71774
#	87551
#	100884
#	115493
#	132403
#	150421
#	172059
#	186736
#	201955
#
# Disc length: 2728 seconds
#
# Revision: 1
# Processed by: cddbd v1.5.2PL0 Copyright (c) Steve Scherf et al.
# Submitted via: audiograbber 1.83.01
#
DISCID=c20aa60d
DTITLE=Keith Miles - What It Was They Became
DYEAR=2006
DGENRE=Folk
TTITLE0=Hickory Tree
TTITLE1=Job To Do
TTITLE2=Highway 81
TTITLE3=Nolichucky Idyll
TTITLE4=I Walk When I Have To
TTITLE5=Sometimes Santa Fe
TTITLE6=Liars
TTITLE7=Just Dropped In
TTITLE8=Indian Prayer
TTITLE9=Mason Dixon Line
TTITLE10=This Face
TTITLE11=Girl With Indiana Eyes
TTITLE12=Whistling Artist
EXTD=
EXTT0=
EXTT1=
EXTT2=
EXTT3=
EXTT4=
EXTT5=
EXTT6=
EXTT7=
EXTT8=
EXTT9=
EXTT10=
EXTT11=
EXTT12=
PLAYORDER=
